<svg xmlns="http://www.w3.org/2000/svg" xmlns:v="https://svgstorm.com"
viewBox = "0 0 400 159"
width="400"
height="159">
<g fill="None" fill-opacity="0.0" stroke="#FEFEFE" stroke-opacity="1.00" stroke-width="0.3"><path d="
M 0.00 159.00 
L 400.00 159.00
L 400.00 0.00
L 0.00 0.00
L 0.00 159.00
M 189.00 83.00 
C 188.49 93.78 188.35 106.68 200.02 109.98 C 211.70 113.27 220.40 102.60 218.00 91.00
C 206.94 88.68 208.21 72.11 220.00 72.00 C 231.80 71.90 233.76 88.79 222.00 91.00
C 224.16 104.20 214.51 116.42 200.78 114.22 C 187.04 112.02 182.45 95.93 185.00 83.00
C 177.62 82.64 173.45 74.64 172.67 68.33 C 171.89 62.01 166.01 52.05 172.75 46.75 C 179.49 41.46 190.01 46.96 178.31 47.35 C 166.60 47.74 174.27 58.70 174.78 65.22 C 175.29 71.74 180.58 79.19 188.00 79.00 C 195.42 78.81 199.72 70.21 200.78 64.78 C 201.84 59.34 207.60 45.12 195.98 47.02 C 184.35 48.93 198.22 36.78 202.75 47.25 C 207.27 57.73 203.48 81.10 189.00 83.00 Z"/>
</g>
<g fill="None" fill-opacity="0.0" stroke="#3FCCD3" stroke-opacity="1.00" stroke-width="0.3"><path d="
M 189.00 83.00 
C 203.48 81.10 207.27 57.73 202.75 47.25 C 198.22 36.78 184.35 48.93 195.98 47.02 C 207.60 45.12 201.84 59.34 200.78 64.78 C 199.72 70.21 195.42 78.81 188.00 79.00 C 180.58 79.19 175.29 71.74 174.78 65.22 C 174.27 58.70 166.60 47.74 178.31 47.35 C 190.01 46.96 179.49 41.46 172.75 46.75 C 166.01 52.05 171.89 62.01 172.67 68.33 C 173.45 74.64 177.62 82.64 185.00 83.00
C 182.45 95.93 187.04 112.02 200.78 114.22 C 214.51 116.42 224.16 104.20 222.00 91.00
C 233.76 88.79 231.80 71.90 220.00 72.00 C 208.21 72.11 206.94 88.68 218.00 91.00
C 220.40 102.60 211.70 113.27 200.02 109.98 C 188.35 106.68 188.49 93.78 189.00 83.00
M 222.00 75.00 
C 229.74 76.44 225.80 90.43 218.00 87.00 C 210.20 83.57 215.65 73.81 222.00 75.00 Z"/>
</g>
<g fill="None" fill-opacity="0.0" stroke="#F2FCFC" stroke-opacity="1.00" stroke-width="0.3"><path d="
M 222.00 75.00 
C 215.65 73.81 210.20 83.57 218.00 87.00 C 225.80 90.43 229.74 76.44 222.00 75.00
M 222.00 77.00 
C 226.67 78.78 223.45 87.36 218.33 84.67 C 213.21 81.97 218.50 75.67 222.00 77.00 Z"/>
</g>
<g fill="None" fill-opacity="0.0" stroke="#36CAD1" stroke-opacity="1.00" stroke-width="0.3"><path d="
M 222.00 77.00 
C 218.50 75.67 213.21 81.97 218.33 84.67 C 223.45 87.36 226.67 78.78 222.00 77.00 Z"/>
</g>
<g fill="#FEFEFE" fill-opacity="1.00" stroke="None">
<path d="
M 0.00 159.00 
L 400.00 159.00
L 400.00 0.00
L 0.00 0.00
L 0.00 159.00
M 189.00 83.00 
C 188.49 93.78 188.35 106.68 200.02 109.98 C 211.70 113.27 220.40 102.60 218.00 91.00
C 206.94 88.68 208.21 72.11 220.00 72.00 C 231.80 71.90 233.76 88.79 222.00 91.00
C 224.16 104.20 214.51 116.42 200.78 114.22 C 187.04 112.02 182.45 95.93 185.00 83.00
C 177.62 82.64 173.45 74.64 172.67 68.33 C 171.89 62.01 166.01 52.05 172.75 46.75 C 179.49 41.46 190.01 46.96 178.31 47.35 C 166.60 47.74 174.27 58.70 174.78 65.22 C 175.29 71.74 180.58 79.19 188.00 79.00 C 195.42 78.81 199.72 70.21 200.78 64.78 C 201.84 59.34 207.60 45.12 195.98 47.02 C 184.35 48.93 198.22 36.78 202.75 47.25 C 207.27 57.73 203.48 81.10 189.00 83.00 Z"/>
</g>
<g fill="#3FCCD3" fill-opacity="1.00" stroke="None">
<path d="
M 189.00 83.00 
C 203.48 81.10 207.27 57.73 202.75 47.25 C 198.22 36.78 184.35 48.93 195.98 47.02 C 207.60 45.12 201.84 59.34 200.78 64.78 C 199.72 70.21 195.42 78.81 188.00 79.00 C 180.58 79.19 175.29 71.74 174.78 65.22 C 174.27 58.70 166.60 47.74 178.31 47.35 C 190.01 46.96 179.49 41.46 172.75 46.75 C 166.01 52.05 171.89 62.01 172.67 68.33 C 173.45 74.64 177.62 82.64 185.00 83.00
C 182.45 95.93 187.04 112.02 200.78 114.22 C 214.51 116.42 224.16 104.20 222.00 91.00
C 233.76 88.79 231.80 71.90 220.00 72.00 C 208.21 72.11 206.94 88.68 218.00 91.00
C 220.40 102.60 211.70 113.27 200.02 109.98 C 188.35 106.68 188.49 93.78 189.00 83.00
M 222.00 75.00 
C 229.74 76.44 225.80 90.43 218.00 87.00 C 210.20 83.57 215.65 73.81 222.00 75.00 Z"/>
</g>
<g fill="#F2FCFC" fill-opacity="1.00" stroke="None">
<path d="
M 222.00 75.00 
C 215.65 73.81 210.20 83.57 218.00 87.00 C 225.80 90.43 229.74 76.44 222.00 75.00
M 222.00 77.00 
C 226.67 78.78 223.45 87.36 218.33 84.67 C 213.21 81.97 218.50 75.67 222.00 77.00 Z"/>
</g>
<g fill="#36CAD1" fill-opacity="1.00" stroke="None">
<path d="
M 222.00 77.00 
C 218.50 75.67 213.21 81.97 218.33 84.67 C 223.45 87.36 226.67 78.78 222.00 77.00 Z"/>
</g>
</svg>